<svg xmlns="http://www.w3.org/2000/svg" xmlns:xlink="http://www.w3.org/1999/xlink" width="1300" zoomAndPan="magnify" viewBox="0 0 974.88 809.999993" height="1080" preserveAspectRatio="xMidYMid meet" version="1.0"><defs><clipPath id="35b2c474b8"><path d="M 202.886719 114.160156 L 744.808594 114.160156 L 744.808594 652.59375 L 202.886719 652.59375 Z M 202.886719 114.160156 " clip-rule="nonzero"/></clipPath><clipPath id="712ff18792"><path d="M 473.847656 114.160156 C 324.199219 114.160156 202.886719 234.632812 202.886719 383.242188 C 202.886719 531.851562 324.199219 652.320312 473.847656 652.320312 C 623.496094 652.320312 744.808594 531.851562 744.808594 383.242188 C 744.808594 234.632812 623.496094 114.160156 473.847656 114.160156 Z M 473.847656 114.160156 " clip-rule="nonzero"/></clipPath><clipPath id="33bb4e967d"><path d="M 383.503906 295.5 L 564.851562 295.5 L 564.851562 474.75 L 383.503906 474.75 Z M 383.503906 295.5 " clip-rule="nonzero"/></clipPath><clipPath id="6c01231864"><path d="M 473.851562 295.5 C 423.953125 295.5 383.503906 335.625 383.503906 385.125 C 383.503906 434.621094 423.953125 474.75 473.851562 474.75 C 523.746094 474.75 564.199219 434.621094 564.199219 385.125 C 564.199219 335.625 523.746094 295.5 473.851562 295.5 Z M 473.851562 295.5 " clip-rule="nonzero"/></clipPath><clipPath id="94065bd10f"><path d="M 0.503906 0.5 L 181.410156 0.5 L 181.410156 179.75 L 0.503906 179.75 Z M 0.503906 0.5 " clip-rule="nonzero"/></clipPath><clipPath id="eecac49b00"><path d="M 90.851562 0.5 C 40.953125 0.5 0.503906 40.625 0.503906 90.125 C 0.503906 139.621094 40.953125 179.75 90.851562 179.75 C 140.746094 179.75 181.199219 139.621094 181.199219 90.125 C 181.199219 40.625 140.746094 0.5 90.851562 0.5 Z M 90.851562 0.5 " clip-rule="nonzero"/></clipPath><clipPath id="6339d46f94"><rect x="0" width="182" y="0" height="180"/></clipPath><clipPath id="99edb4d1dc"><path d="M 691.863281 623.703125 L 783 623.703125 L 783 713.867188 L 691.863281 713.867188 Z M 691.863281 623.703125 " clip-rule="nonzero"/></clipPath><clipPath id="4fd97e317a"><path d="M 737.3125 623.703125 C 712.210938 623.703125 691.863281 643.886719 691.863281 668.785156 C 691.863281 693.683594 712.210938 713.867188 737.3125 713.867188 C 762.410156 713.867188 782.757812 693.683594 782.757812 668.785156 C 782.757812 643.886719 762.410156 623.703125 737.3125 623.703125 Z M 737.3125 623.703125 " clip-rule="nonzero"/></clipPath><clipPath id="cfb3be303b"><path d="M 0.863281 0.703125 L 91.785156 0.703125 L 91.785156 90.867188 L 0.863281 90.867188 Z M 0.863281 0.703125 " clip-rule="nonzero"/></clipPath><clipPath id="b2aaf64755"><path d="M 46.3125 0.703125 C 21.210938 0.703125 0.863281 20.886719 0.863281 45.785156 C 0.863281 70.683594 21.210938 90.867188 46.3125 90.867188 C 71.410156 90.867188 91.757812 70.683594 91.757812 45.785156 C 91.757812 20.886719 71.410156 0.703125 46.3125 0.703125 Z M 46.3125 0.703125 " clip-rule="nonzero"/></clipPath><clipPath id="d252fbfb9a"><rect x="0" width="92" y="0" height="91"/></clipPath></defs><g clip-path="url(#35b2c474b8)"><g clip-path="url(#712ff18792)"><path stroke-linecap="butt" transform="matrix(0.749908, 0, 0, 0.749908, 202.884895, 114.15935)" fill="none" stroke-linejoin="miter" d="M 361.328168 0.00107577 C 161.772349 0.00107577 0.0024322 160.651063 0.0024322 358.821295 C 0.0024322 556.991527 161.772349 717.636305 361.328168 717.636305 C 560.883987 717.636305 722.653904 556.991527 722.653904 358.821295 C 722.653904 160.651063 560.883987 0.00107577 361.328168 0.00107577 Z M 361.328168 0.00107577 " stroke="#000000" stroke-width="140" stroke-opacity="1" stroke-miterlimit="4"/></g></g><g clip-path="url(#33bb4e967d)"><g clip-path="url(#6c01231864)"><g transform="matrix(1, 0, 0, 1, 383, 295)"><g clip-path="url(#6339d46f94)"><g clip-path="url(#94065bd10f)"><g clip-path="url(#eecac49b00)"><path fill="#000000" d="M 0.503906 0.5 L 181.152344 0.5 L 181.152344 179.75 L 0.503906 179.75 Z M 0.503906 0.5 " fill-opacity="1" fill-rule="nonzero"/></g></g></g></g></g></g><g clip-path="url(#99edb4d1dc)"><g clip-path="url(#4fd97e317a)"><g transform="matrix(1, 0, 0, 1, 691, 623)"><g clip-path="url(#d252fbfb9a)"><g clip-path="url(#cfb3be303b)"><g clip-path="url(#b2aaf64755)"><path fill="#000000" d="M 0.863281 0.703125 L 91.730469 0.703125 L 91.730469 90.867188 L 0.863281 90.867188 Z M 0.863281 0.703125 " fill-opacity="1" fill-rule="nonzero"/></g></g></g></g></g></g><path stroke-linecap="butt" transform="matrix(0.51528, 0.544837, -0.544837, 0.51528, 526.840776, 429.252781)" fill="none" stroke-linejoin="miter" d="M 0.000351232 15.997355 L 364.571523 15.998925 " stroke="#000000" stroke-width="32" stroke-opacity="1" stroke-miterlimit="4"/></svg>